# Generated mesh
v 1 0 0
v -1 0 0
v 0 1 0
v 0 -1 0
v 0 0 1
v 0 0 -1
v 0.5 0 0.5
v 0.5 0.5 0
v 0 0.5 0.5
v -0.5 0.5 0
v -0.5 0 0.5
v -0.5 -0.5 0
v 0 -0.5 0.5
v 0.5 -0.5 0
v 0 0.5 -0.5
v 0.5 0 -0.5
v -0.5 0 -0.5
v 0 -0.5 -0.5
f 5 7 9
f 1 8 7
f 3 9 8
f 7 8 9
f 5 9 11
f 3 10 9
f 2 11 10
f 9 10 11
f 5 11 13
f 2 12 11
f 4 13 12
f 11 12 13
f 5 13 7
f 4 14 13
f 1 7 14
f 13 14 7
f 6 15 16
f 3 8 15
f 1 16 8
f 15 8 16
f 6 17 15
f 2 10 17
f 3 15 10
f 17 10 15
f 6 18 17
f 4 12 18
f 2 17 12
f 18 12 17
f 6 16 18
f 1 14 16
f 4 18 14
f 16 14 18
